<svg id="Layer_1" enable-background="new 0 0 512 512" height="512" viewBox="0 0 512 512" width="512" xmlns="http://www.w3.org/2000/svg"><g><path d="m500.017 334.181c4.957-6.099 10.682-15.478 11.021-27.299.624-21.798-17.421-36.12-24.214-41.511-27.91-22.154-63.959-17.878-78.164-15.012-3.135.633-5.591 3.071-6.247 6.201-2.933 13.997-7.309 49.522 15.342 77.02 5.387 6.539 19.545 23.728 40.959 23.728 10.789 0 20.7-4.349 29.257-11.198 6.861 15.629 8.047 29.826 8.03 37.874-.009 4.418 3.564 8.008 7.983 8.017 4.484 0 8.008-3.622 8.017-7.983.021-10.368-1.663-29.439-11.984-49.837z"/><path d="m446.246 85.58c22.65-27.497 18.274-63.022 15.342-77.02-.656-3.13-3.112-5.568-6.247-6.201-14.206-2.865-50.253-7.143-78.164 15.011-6.793 5.392-24.838 19.714-24.214 41.511.338 11.821 6.064 21.201 11.021 27.3-10.322 20.398-12.005 39.469-11.983 49.836.009 4.413 3.589 7.983 8 7.983 4.421 0 8.009-3.587 8-8.017-.017-8.047 1.168-22.244 8.03-37.874 8.538 6.834 18.449 11.198 29.257 11.198 21.411.001 35.571-17.189 40.958-23.727z"/><path d="m32.659 141.641c26.614 5.37 56.439 2.233 78.164-15.011 6.793-5.392 24.838-19.714 24.214-41.511-.338-11.821-6.064-21.201-11.021-27.3 10.322-20.398 12.006-39.469 11.984-49.835-.009-4.414-3.589-7.984-8-7.984-4.421 0-8.009 3.587-8 8.017.017 8.047-1.168 22.244-8.03 37.874-8.538-6.834-18.449-11.198-29.257-11.198-21.412 0-35.572 17.189-40.959 23.728-22.65 27.497-18.274 63.022-15.342 77.02.656 3.128 3.112 5.567 6.247 6.2z"/><path d="m248.267 227.765c-.738 4.355 2.194 8.486 6.551 9.225 4.349.738 8.486-2.194 9.225-6.551.228-1.343 1.545-2.493 2.61-3.222 3.855-2.638 10.405-3.87 15.24-2.879 7.731 1.593 15.092 10.507 14.17 22.702-.038.315-.063.635-.063.96 0 13.233-14.355 24-32 24h-160c-4.418 0-8 3.582-8 8s3.582 8 8 8h160c26.141 0 47.455-17.509 47.975-39.191 1.861-17.993-8.981-36.459-26.853-40.141-14.686-3.032-34.311 4.1-36.855 19.097z"/><path d="m72 384h160c26.467 0 48-21.533 48-48 0-4.418-3.582-8-8-8s-8 3.582-8 8c0 17.645-14.355 32-32 32h-160c-4.418 0-8 3.582-8 8s3.582 8 8 8z"/><path d="m288 416h-280c-4.418 0-8 3.582-8 8s3.582 8 8 8h280c17.645 0 32 10.767 32 24 0 .326.025.645.063.96.922 12.195-6.44 21.108-14.171 22.702-4.828.992-11.383-.241-15.239-2.879-1.065-.729-2.383-1.879-2.61-3.222-.738-4.357-4.871-7.279-9.225-6.551-4.356.738-7.289 4.869-6.551 9.225 2.201 12.974 16.901 19.762 30.061 19.762 21.372 0 35.634-19.706 33.648-40.803-.519-21.684-21.833-39.194-47.976-39.194z"/><path d="m8 288h64c4.418 0 8-3.582 8-8s-3.582-8-8-8h-64c-4.418 0-8 3.582-8 8s3.582 8 8 8z"/><path d="m72 352h64c13.233 0 24-10.767 24-24 0-4.418-3.582-8-8-8s-8 3.582-8 8c0 4.411-3.589 8-8 8h-64c-4.418 0-8 3.582-8 8s3.582 8 8 8z"/><path d="m168 448h-160c-4.418 0-8 3.582-8 8s3.582 8 8 8h160c17.645 0 32 14.355 32 32 0 4.418 3.582 8 8 8s8-3.582 8-8c0-26.467-21.533-48-48-48z"/><path d="m72 480h-64c-4.418 0-8 3.582-8 8s3.582 8 8 8h64c4.411 0 8 3.589 8 8 0 4.418 3.582 8 8 8s8-3.582 8-8c0-13.233-10.767-24-24-24z"/><circle cx="128.005" cy="223.995" r="8.005"/><circle cx="167.995" cy="72.005" r="8.005"/><circle cx="255.995" cy="127.995" r="8.005"/><circle cx="455.995" cy="192.005" r="8.005"/><circle cx="344.005" cy="391.995" r="8.005"/><circle cx="455.995" cy="503.995" r="8.005"/></g></svg>