<svg id="Layer_1" enable-background="new 0 0 512 512" height="512" viewBox="0 0 512 512" width="512" xmlns="http://www.w3.org/2000/svg"><g><g><g><g><path d="m231.75 383.5h-160c-4.143 0-7.5-3.357-7.5-7.5s3.357-7.5 7.5-7.5h160c17.921 0 32.5-14.579 32.5-32.5 0-4.143 3.357-7.5 7.5-7.5s7.5 3.357 7.5 7.5c0 26.191-21.309 47.5-47.5 47.5z" fill="#cee9f8"/></g></g></g><g><g><g><path d="m302.067 495.499c-12.888 0-27.4-6.631-29.558-19.347-.692-4.084 2.057-7.956 6.141-8.648 4.093-.688 7.957 2.058 8.648 6.141.756 4.464 11.153 8.006 18.444 6.507 8.005-1.649 15.638-10.895 14.556-23.511-.354-4.127 2.705-7.76 6.832-8.113 4.114-.353 7.76 2.704 8.113 6.832 1.781 20.758-12.012 40.139-33.176 40.139z" fill="#cee9f8"/></g></g></g><g><g><g><path d="m284.77 209.157c-14.364-2.962-33.763 3.964-36.261 18.69-.692 4.084 2.057 7.956 6.141 8.648 4.093.697 7.957-2.058 8.648-6.141.73-4.313 10.932-8.057 18.444-6.507 7.947 1.637 15.516 10.764 14.568 23.239-.036.3-.061.603-.061.912 0 13.51-14.579 24.5-32.5 24.5h-160c-4.143 0-7.5 3.357-7.5 7.5s3.357 7.5 7.5 7.5h160c25.88 0 46.978-17.304 47.476-38.727 1.845-17.656-8.773-35.971-26.455-39.614z" fill="#a1d7f3"/></g></g><g><g><path d="m71.75 272.5h-64c-4.143 0-7.5 3.357-7.5 7.5s3.357 7.5 7.5 7.5h64c4.143 0 7.5-3.357 7.5-7.5s-3.358-7.5-7.5-7.5z" fill="#a1d7f3"/></g></g></g><g><g><g><path d="m327.75 463.5c-4.143 0-7.5-3.357-7.5-7.5 0-13.51-14.579-24.5-32.5-24.5h-280c-4.143 0-7.5-3.357-7.5-7.5s3.357-7.5 7.5-7.5h280c26.191 0 47.5 17.72 47.5 39.5 0 4.143-3.358 7.5-7.5 7.5z" fill="#cee9f8"/></g></g></g><g><g><g><path d="m135.75 351.5h-64c-4.143 0-7.5-3.357-7.5-7.5s3.357-7.5 7.5-7.5h64c4.687 0 8.5-3.813 8.5-8.5 0-4.143 3.357-7.5 7.5-7.5s7.5 3.357 7.5 7.5c0 12.958-10.542 23.5-23.5 23.5z" fill="#cee9f8"/></g></g></g><g><g><g><path d="m207.75 503.5c-4.143 0-7.5-3.357-7.5-7.5 0-17.921-14.579-32.5-32.5-32.5h-160c-4.143 0-7.5-3.357-7.5-7.5s3.357-7.5 7.5-7.5h160c26.191 0 47.5 21.309 47.5 47.5 0 4.143-3.358 7.5-7.5 7.5z" fill="#a1d7f3"/></g></g></g><g><g><g><path d="m87.75 511.5c-4.143 0-7.5-3.357-7.5-7.5 0-4.687-3.813-8.5-8.5-8.5h-64c-4.143 0-7.5-3.357-7.5-7.5s3.357-7.5 7.5-7.5h64c12.958 0 23.5 10.542 23.5 23.5 0 4.143-3.358 7.5-7.5 7.5z" fill="#a1d7f3"/></g></g></g><g><g><g><path d="m486.573 265.371c-27.91-22.154-63.959-17.878-78.164-15.012-3.135.633-5.591 3.071-6.247 6.201-2.933 13.997-7.309 49.522 15.342 77.02 5.387 6.539 19.545 23.728 40.959 23.728 13.934 0 25.48-6.99 35.32-16.648 4.081-4.007 16.501-16.199 17.004-33.777.624-21.799-17.421-36.121-24.214-41.512z" fill="#6bc800"/></g></g><g><g><path d="m496.66 337.73c-10.374 11.096-22.898 19.58-38.2 19.58-21.41 0-35.57-17.19-40.96-23.73-22.65-27.5-18.27-63.02-15.34-77.02.66-3.13 3.11-5.57 6.25-6.2 3.92-.79 9.51-1.69 16.14-2.11-2.18 16.95-2.08 45.44 16.8 68.36 5.39 6.54 19.55 23.73 40.96 23.73 4.885 0 9.692-.897 14.35-2.61z" fill="#57a000"/></g></g><g><g><path d="m405.037 109.308c21.412 0 35.572-17.189 40.959-23.728 22.65-27.497 18.274-63.022 15.342-77.02-.656-3.13-3.112-5.568-6.247-6.201-14.206-2.865-50.253-7.143-78.164 15.011-6.793 5.392-24.838 19.714-24.214 41.511.503 17.579 12.923 29.771 17.005 33.779 9.811 9.63 21.347 16.648 35.319 16.648z" fill="#6bc800"/></g></g><g><g><path d="m446 85.58c-5.39 6.54-19.55 23.73-40.96 23.73-11.391 0-21.705-4.859-30.37-12.11 1.088.112 2.305.18 3.77.18 21.41 0 35.57-17.19 40.96-23.72 20.98-25.47 18.77-57.83 16-73.58 8.18.27 15.09 1.35 19.69 2.28 3.14.63 5.59 3.07 6.25 6.2 2.93 14 7.31 49.52-15.34 77.02z" fill="#57a000"/></g></g><g><g><path d="m117.782 51.34c-9.812-9.63-21.347-16.647-35.319-16.647-21.412 0-35.572 17.189-40.959 23.728-22.65 27.497-18.274 63.022-15.342 77.02.656 3.13 3.112 5.568 6.247 6.201 26.614 5.37 56.439 2.233 78.164-15.011 6.793-5.392 24.838-19.714 24.214-41.511-.503-17.58-12.923-29.772-17.005-33.78z" fill="#6bc800"/></g></g><g><g><path d="m113.39 47.27c-1.204-.134-2.849-.2-3.87-.2-21.41 0-35.57 17.19-40.96 23.73-20.78 25.23-18.81 57.21-16.08 73.13-8.34-.25-15.4-1.34-20.07-2.29-3.14-.63-5.59-3.07-6.25-6.2-2.93-14-7.31-49.52 15.34-77.02 5.39-6.54 19.55-23.73 40.96-23.73 11.567 0 22.068 5.003 30.93 12.58z" fill="#57a000"/></g></g></g><g><g><g><path d="m503.75 392c-4.421 0-8.009-3.587-8-8.017.067-31.808-16.409-62.502-44.9-80.298-3.748-2.34-4.889-7.275-2.548-11.022 2.339-3.748 7.276-4.89 11.022-2.548 33.656 21.017 52.503 57.138 52.426 93.901-.009 4.413-3.59 7.984-8 7.984z" fill="#57a000"/></g></g></g><g><g><g><path d="m359.75 144c-4.411 0-7.991-3.57-8-7.983-.078-36.852 18.843-72.93 52.426-93.901 3.746-2.341 8.684-1.2 11.022 2.548 2.341 3.747 1.2 8.683-2.548 11.022-28.532 17.821-44.967 48.538-44.9 80.298.009 4.42-3.57 8.016-8 8.016z" fill="#57a000"/></g></g></g><g><g><g><path d="m72.302 99.337c-2.341-3.747-1.2-8.683 2.548-11.022 28.532-17.821 44.967-48.538 44.9-80.298-.009-4.418 3.564-8.008 7.983-8.017 4.417-.009 8.008 3.563 8.017 7.983.078 36.852-18.843 72.93-52.426 93.901-3.722 2.327-8.668 1.224-11.022-2.547z" fill="#57a000"/></g></g></g><g><g><g><circle cx="127.755" cy="223.995" fill="#6bc800" r="8.005"/></g></g></g><g><g><g><circle cx="167.745" cy="72.005" fill="#57a000" r="8.005"/></g></g></g><g><g><g><circle cx="255.745" cy="127.995" fill="#57a000" r="8.005"/></g></g></g><g><g><g><path d="m455.745 200.01c-4.418 0-8.005-3.587-8.005-8.005s3.587-8.005 8.005-8.005 8.005 3.587 8.005 8.005-3.587 8.005-8.005 8.005zm7.995-8.005h.01zm-7.995 0h.01z" fill="#6bc800"/></g></g></g><g><g><g><path d="m343.755 400c-4.418 0-8.005-3.587-8.005-8.005s3.587-8.005 8.005-8.005 8.005 3.587 8.005 8.005-3.587 8.005-8.005 8.005zm7.995-8.005h.01zm-7.995 0h.01z" fill="#57a000"/></g></g></g><g><g><g><path d="m455.745 512c-4.418 0-8.005-3.587-8.005-8.005s3.587-8.005 8.005-8.005 8.005 3.587 8.005 8.005-3.587 8.005-8.005 8.005zm7.995-8.005h.01zm-7.995 0h.01z" fill="#6bc800"/></g></g></g></g><g><path d="m71.75 383.5h160c26.191 0 47.5-21.309 47.5-47.5 0-4.143-3.357-7.5-7.5-7.5s-7.5 3.357-7.5 7.5c0 17.921-14.579 32.5-32.5 32.5h-160c-4.143 0-7.5 3.357-7.5 7.5s3.357 7.5 7.5 7.5z"/><path d="m248.51 227.848c-.692 4.084 2.057 7.956 6.141 8.648 4.093.697 7.957-2.058 8.648-6.141.73-4.313 10.932-8.057 18.444-6.507 7.947 1.637 15.516 10.764 14.568 23.239-.036.3-.061.603-.061.912 0 13.51-14.579 24.5-32.5 24.5h-160c-4.143 0-7.5 3.357-7.5 7.5s3.357 7.5 7.5 7.5h160c25.88 0 46.978-17.304 47.476-38.727 1.843-17.658-8.775-35.973-26.456-39.616-14.364-2.961-33.762 3.966-36.26 18.692z"/><path d="m335.226 455.23c-.497-21.425-21.595-38.73-47.477-38.73h-280c-4.143 0-7.5 3.357-7.5 7.5s3.357 7.5 7.5 7.5h280c17.921 0 32.5 10.99 32.5 24.5 0 .31.024.612.061.912.948 12.475-6.621 21.602-14.568 23.239-7.407 1.523-17.703-2.13-18.444-6.507-.691-4.083-4.556-6.829-8.648-6.141-4.084.692-6.833 4.564-6.141 8.648 2.155 12.703 16.648 19.347 29.558 19.347 21.505.001 35.201-20.079 33.159-40.268z"/><path d="m7.75 287.5h64c4.143 0 7.5-3.357 7.5-7.5s-3.357-7.5-7.5-7.5h-64c-4.143 0-7.5 3.357-7.5 7.5s3.357 7.5 7.5 7.5z"/><path d="m71.75 351.5h64c12.958 0 23.5-10.542 23.5-23.5 0-4.143-3.357-7.5-7.5-7.5s-7.5 3.357-7.5 7.5c0 4.687-3.813 8.5-8.5 8.5h-64c-4.143 0-7.5 3.357-7.5 7.5s3.357 7.5 7.5 7.5z"/><path d="m167.75 448.5h-160c-4.143 0-7.5 3.357-7.5 7.5s3.357 7.5 7.5 7.5h160c17.921 0 32.5 14.579 32.5 32.5 0 4.143 3.357 7.5 7.5 7.5s7.5-3.357 7.5-7.5c0-26.191-21.309-47.5-47.5-47.5z"/><path d="m71.75 480.5h-64c-4.143 0-7.5 3.357-7.5 7.5s3.357 7.5 7.5 7.5h64c4.687 0 8.5 3.813 8.5 8.5 0 4.143 3.357 7.5 7.5 7.5s7.5-3.357 7.5-7.5c0-12.958-10.542-23.5-23.5-23.5z"/><path d="m499.766 334.181c4.957-6.099 10.682-15.478 11.021-27.299.624-21.798-17.421-36.12-24.214-41.511-27.91-22.154-63.959-17.878-78.164-15.012-3.135.633-5.591 3.071-6.247 6.201-2.933 13.997-7.309 49.522 15.342 77.02 5.387 6.539 19.545 23.728 40.959 23.728 10.789 0 20.7-4.348 29.257-11.198 6.861 15.629 8.047 29.826 8.03 37.874-.009 4.418 3.564 8.008 7.983 8.017 4.484 0 8.008-3.622 8.017-7.983.022-10.368-1.662-29.439-11.984-49.837zm-9.048-14.846c-8.37-11.531-19.126-21.559-31.394-29.22-3.746-2.342-8.684-1.2-11.022 2.548-2.341 3.747-1.2 8.683 2.548 11.022 11.602 7.247 21.61 16.945 29.032 28.099-6.045 5.414-13.313 9.522-21.39 9.522-13.892-.001-24.199-12.512-28.638-17.9-15.927-19.334-15.088-44.42-12.981-58.284 14.169-2.09 39.925-2.96 59.754 12.781 5.555 4.408 18.563 14.731 18.167 28.521-.141 4.889-1.886 9.266-4.076 12.911z"/><path d="m405.037 109.308c21.412 0 35.572-17.189 40.959-23.728 22.65-27.497 18.274-63.022 15.342-77.02-.656-3.13-3.112-5.568-6.247-6.201-14.206-2.865-50.253-7.143-78.164 15.011-6.793 5.392-24.838 19.714-24.214 41.511.338 11.821 6.064 21.201 11.021 27.3-10.322 20.398-12.005 39.469-11.983 49.836.009 4.413 3.589 7.983 8 7.983 4.421 0 8.009-3.587 8-8.017-.017-8.047 1.168-22.244 8.03-37.874 8.537 6.835 18.448 11.199 29.256 11.199zm10.161-64.645c-2.339-3.748-7.276-4.889-11.022-2.548-12.268 7.661-23.024 17.689-31.394 29.22-2.189-3.645-3.935-8.022-4.075-12.912-.396-13.788 12.612-24.111 18.167-28.521 16.604-13.18 39.027-15.839 59.754-12.78 2.106 13.865 2.945 38.95-12.981 58.284-4.507 5.472-15.029 18.292-29.276 17.892-9.125-.251-16.472-5.68-20.752-9.514 7.422-11.153 17.43-20.852 29.032-28.098 3.747-2.34 4.888-7.276 2.547-11.023z"/><path d="m32.409 141.641c26.614 5.37 56.439 2.233 78.164-15.011 6.793-5.392 24.838-19.714 24.214-41.511-.338-11.821-6.064-21.201-11.021-27.3 10.322-20.398 12.005-39.469 11.983-49.836-.008-4.413-3.588-7.983-7.999-7.983-4.421 0-8.009 3.587-8 8.017.017 8.047-1.168 22.244-8.03 37.874-8.538-6.834-18.449-11.198-29.257-11.198-21.412 0-35.572 17.189-40.959 23.728-22.65 27.497-18.274 63.022-15.342 77.02.656 3.128 3.112 5.567 6.247 6.2zm21.444-73.047c4.507-5.472 15.025-18.254 29.277-17.892 9.125.251 16.472 5.68 20.752 9.514-7.422 11.153-17.43 20.852-29.032 28.098-3.748 2.34-4.889 7.275-2.548 11.022 2.351 3.766 7.294 4.878 11.022 2.548 12.268-7.661 23.024-17.689 31.394-29.22 2.189 3.645 3.935 8.022 4.075 12.912.396 13.788-12.612 24.111-18.167 28.521-19.831 15.74-45.588 14.87-59.754 12.78-2.106-13.864-2.945-38.949 12.981-58.283z"/><circle cx="127.755" cy="223.995" r="8.005"/><circle cx="167.745" cy="72.005" r="8.005"/><circle cx="255.745" cy="127.995" r="8.005"/><circle cx="455.745" cy="192.005" r="8.005"/><circle cx="343.755" cy="391.995" r="8.005"/><circle cx="455.745" cy="503.995" r="8.005"/></g></svg>