<svg id="Layer_1" enable-background="new 0 0 512 512" height="512" viewBox="0 0 512 512" width="512" xmlns="http://www.w3.org/2000/svg" xmlns:xlink="http://www.w3.org/1999/xlink"><linearGradient id="lg1"><stop offset="0" stop-color="#78b8ea"/><stop offset=".1859" stop-color="#68aae4"/><stop offset=".5517" stop-color="#3d85d4"/><stop offset="1" stop-color="#0051be"/></linearGradient><linearGradient id="SVGID_1_" gradientUnits="userSpaceOnUse" x1="162.74" x2="176.528" xlink:href="#lg1" y1="5.164" y2="527.547"/><linearGradient id="SVGID_2_" gradientUnits="userSpaceOnUse" x1="197.283" x2="211.071" xlink:href="#lg1" y1="4.252" y2="526.635"/><linearGradient id="SVGID_3_" gradientUnits="userSpaceOnUse" x1="156.572" x2="170.36" xlink:href="#lg1" y1="5.326" y2="527.709"/><linearGradient id="SVGID_4_" gradientUnits="userSpaceOnUse" x1="32.837" x2="46.624" xlink:href="#lg1" y1="8.592" y2="530.975"/><linearGradient id="SVGID_5_" gradientUnits="userSpaceOnUse" x1="103.31" x2="117.097" xlink:href="#lg1" y1="6.732" y2="529.115"/><linearGradient id="SVGID_6_" gradientUnits="userSpaceOnUse" x1="95.627" x2="109.414" xlink:href="#lg1" y1="6.935" y2="529.318"/><linearGradient id="SVGID_7_" gradientUnits="userSpaceOnUse" x1="35.137" x2="48.924" xlink:href="#lg1" y1="8.531" y2="530.914"/><linearGradient id="SVGID_8_" gradientUnits="userSpaceOnUse" x1="447.726" x2="461.513" xlink:href="#lg1" y1="-2.358" y2="520.025"/><linearGradient id="SVGID_9_" gradientUnits="userSpaceOnUse" x1="405.767" x2="419.554" xlink:href="#lg1" y1="-1.251" y2="521.132"/><linearGradient id="SVGID_10_" gradientUnits="userSpaceOnUse" x1="78.595" x2="92.382" xlink:href="#lg1" y1="7.384" y2="529.767"/><linearGradient id="SVGID_11_" gradientUnits="userSpaceOnUse" x1="122.258" x2="136.045" xlink:href="#lg1" y1="6.232" y2="528.615"/><linearGradient id="SVGID_12_" gradientUnits="userSpaceOnUse" x1="166.229" x2="180.016" xlink:href="#lg1" y1="5.072" y2="527.455"/><linearGradient id="SVGID_13_" gradientUnits="userSpaceOnUse" x1="252.691" x2="266.478" xlink:href="#lg1" y1="2.79" y2="525.173"/><linearGradient id="SVGID_14_" gradientUnits="userSpaceOnUse" x1="450.863" x2="464.65" xlink:href="#lg1" y1="-2.441" y2="519.942"/><linearGradient id="SVGID_15_" gradientUnits="userSpaceOnUse" x1="333.676" x2="347.463" xlink:href="#lg1" y1=".652" y2="523.035"/><linearGradient id="SVGID_16_" gradientUnits="userSpaceOnUse" x1="442.635" x2="456.422" xlink:href="#lg1" y1="-2.224" y2="520.159"/><g><path d="m72 384h160c26.467 0 48-21.533 48-48 0-4.418-3.582-8-8-8s-8 3.582-8 8c0 17.645-14.355 32-32 32h-160c-4.418 0-8 3.582-8 8s3.582 8 8 8z" fill="url(#SVGID_1_)"/><path d="m248.267 227.765c-.738 4.355 2.194 8.486 6.551 9.225 4.349.738 8.486-2.194 9.225-6.551.228-1.343 1.545-2.493 2.61-3.222 3.855-2.638 10.405-3.87 15.24-2.879 7.731 1.593 15.092 10.507 14.17 22.702-.038.315-.063.635-.063.96 0 13.233-14.355 24-32 24h-160c-4.418 0-8 3.582-8 8s3.582 8 8 8h160c26.141 0 47.455-17.509 47.975-39.191 1.861-17.992-8.981-36.459-26.853-40.141-14.686-3.032-34.311 4.1-36.855 19.097z" fill="url(#SVGID_2_)"/><path d="m335.976 455.194c-.519-21.684-21.833-39.194-47.976-39.194h-280c-4.418 0-8 3.582-8 8s3.582 8 8 8h280c17.645 0 32 10.767 32 24 0 .326.025.645.063.96.922 12.195-6.44 21.108-14.171 22.702-4.828.992-11.383-.241-15.239-2.879-1.065-.729-2.383-1.879-2.61-3.222-.738-4.357-4.871-7.279-9.225-6.551-4.356.738-7.289 4.869-6.551 9.225 2.201 12.973 16.901 19.762 30.061 19.762 21.371 0 35.633-19.706 33.648-40.803z" fill="url(#SVGID_3_)"/><path d="m8 288h64c4.418 0 8-3.582 8-8s-3.582-8-8-8h-64c-4.418 0-8 3.582-8 8s3.582 8 8 8z" fill="url(#SVGID_4_)"/><path d="m72 352h64c13.233 0 24-10.767 24-24 0-4.418-3.582-8-8-8s-8 3.582-8 8c0 4.411-3.589 8-8 8h-64c-4.418 0-8 3.582-8 8s3.582 8 8 8z" fill="url(#SVGID_5_)"/><path d="m168 448h-160c-4.418 0-8 3.582-8 8s3.582 8 8 8h160c17.645 0 32 14.355 32 32 0 4.418 3.582 8 8 8s8-3.582 8-8c0-26.467-21.533-48-48-48z" fill="url(#SVGID_6_)"/><path d="m72 480h-64c-4.418 0-8 3.582-8 8s3.582 8 8 8h64c4.411 0 8 3.589 8 8 0 4.418 3.582 8 8 8s8-3.582 8-8c0-13.233-10.767-24-24-24z" fill="url(#SVGID_7_)"/><path d="m500.017 334.181c4.957-6.099 10.682-15.478 11.021-27.299.624-21.798-17.421-36.12-24.214-41.511-27.91-22.154-63.959-17.878-78.164-15.012-3.135.633-5.591 3.071-6.247 6.201-2.933 13.997-7.309 49.522 15.342 77.02 5.387 6.539 19.545 23.728 40.959 23.728 10.789 0 20.7-4.348 29.257-11.198 6.861 15.629 8.047 29.826 8.03 37.874-.009 4.418 3.564 8.008 7.983 8.017 4.484 0 8.008-3.622 8.017-7.983.021-10.368-1.663-29.439-11.984-49.837zm-40.637 7.117c-12.125.332-21.607-8.58-29.276-17.892-15.927-19.334-15.088-44.42-12.981-58.284 14.169-2.09 39.925-2.96 59.754 12.781 5.555 4.408 18.563 14.731 18.167 28.521-.139 4.889-1.885 9.267-4.075 12.911-8.37-11.531-19.126-21.559-31.394-29.22-3.746-2.342-8.684-1.2-11.022 2.548-2.341 3.747-1.2 8.683 2.548 11.022 11.602 7.247 21.61 16.945 29.032 28.099-4.281 3.833-11.628 9.262-20.753 9.514z" fill="url(#SVGID_8_)"/><path d="m405.287 109.308c21.412 0 35.572-17.189 40.959-23.728 22.65-27.497 18.274-63.022 15.342-77.02-.656-3.13-3.112-5.568-6.247-6.201-14.206-2.865-50.253-7.143-78.164 15.011-6.793 5.392-24.838 19.714-24.214 41.511.338 11.821 6.064 21.201 11.021 27.3-10.322 20.398-12.005 39.469-11.983 49.836.009 4.413 3.589 7.983 8 7.983 4.421 0 8.009-3.587 8-8.017-.017-8.047 1.168-22.244 8.03-37.874 8.537 6.835 18.448 11.199 29.256 11.199zm-18.163-79.406c16.604-13.18 39.027-15.839 59.754-12.78 2.106 13.865 2.945 38.95-12.981 58.284-4.507 5.472-15.029 18.292-29.276 17.892-9.125-.251-16.472-5.68-20.752-9.514 7.422-11.153 17.43-20.852 29.032-28.098 3.748-2.34 4.889-7.275 2.548-11.022-2.339-3.748-7.276-4.889-11.022-2.548-12.268 7.661-23.024 17.689-31.394 29.22-2.189-3.645-3.935-8.022-4.075-12.912-.396-13.789 12.611-24.112 18.166-28.522z" fill="url(#SVGID_9_)"/><path d="m32.659 141.641c26.614 5.369 56.439 2.233 78.164-15.011 6.793-5.392 24.838-19.714 24.214-41.511-.338-11.821-6.064-21.201-11.021-27.3 10.322-20.398 12.006-39.469 11.984-49.835-.009-4.414-3.589-7.984-8-7.984-4.421 0-8.009 3.587-8 8.017.017 8.047-1.168 22.244-8.03 37.874-8.538-6.834-18.449-11.198-29.257-11.198-21.412 0-35.572 17.189-40.959 23.728-22.65 27.497-18.274 63.022-15.342 77.02.656 3.128 3.112 5.567 6.247 6.2zm21.445-73.047c4.506-5.472 15.024-18.254 29.276-17.892 9.125.251 16.472 5.68 20.752 9.514-7.423 11.154-17.431 20.852-29.032 28.099-3.748 2.34-4.889 7.275-2.548 11.022 2.351 3.766 7.294 4.878 11.022 2.548 12.268-7.661 23.024-17.689 31.394-29.22 2.189 3.645 3.935 8.022 4.075 12.912.396 13.788-12.612 24.111-18.167 28.521-19.831 15.74-45.588 14.87-59.754 12.78-2.106-13.865-2.945-38.95 12.982-58.284z" fill="url(#SVGID_10_)"/><circle cx="128.005" cy="223.995" fill="url(#SVGID_11_)" r="8.005"/><circle cx="167.995" cy="72.005" fill="url(#SVGID_12_)" r="8.005"/><circle cx="255.995" cy="127.995" fill="url(#SVGID_13_)" r="8.005"/><circle cx="455.995" cy="192.005" fill="url(#SVGID_14_)" r="8.005"/><circle cx="344.005" cy="391.995" fill="url(#SVGID_15_)" r="8.005"/><circle cx="455.995" cy="503.995" fill="url(#SVGID_16_)" r="8.005"/></g></svg>