<svg id="Layer_1" enable-background="new 0 0 512 512" height="512" viewBox="0 0 512 512" width="512" xmlns="http://www.w3.org/2000/svg"><g><path d="m280.1 152.633c-8.284 0-15 6.716-15 15v88.367c0 8.284 6.716 15 15 15h72.3c8.284 0 15-6.716 15-15s-6.716-15-15-15h-57.3v-73.366c0-8.285-6.716-15.001-15-15.001z"/><path d="m444.078 92.024c-43.8-43.801-102.036-67.924-163.978-67.924-61.941 0-120.176 24.122-163.977 67.922-40.247 40.248-63.879 92.678-67.448 148.978h-33.675c-6.067 0-11.537 3.655-13.858 9.26s-1.038 12.057 3.251 16.347l80.333 80.334c2.813 2.813 6.628 4.394 10.607 4.394 3.978 0 7.793-1.58 10.606-4.394l80.334-80.334c4.29-4.29 5.573-10.742 3.252-16.347-2.322-5.605-7.792-9.26-13.858-9.26h-32.388c7.497-68.862 65.997-122.633 136.821-122.633 36.764 0 71.326 14.316 97.321 40.313 25.996 25.994 40.313 60.556 40.313 97.32 0 75.892-61.742 137.634-137.634 137.634-23.98 0-47.582-6.261-68.22-18.076-.208-.132-.41-.255-.596-.361-7.162-4.136-15.301-6.322-23.539-6.322-16.8 0-32.451 9.031-40.845 23.569-6.296 10.903-7.969 23.605-4.71 35.767 3.159 11.79 10.584 21.702 20.97 28.031.312.213.633.416.962.606 35.108 20.314 75.213 31.052 115.978 31.052 61.943 0 120.178-24.122 163.979-67.922s67.921-102.036 67.921-163.978-24.122-120.178-67.922-163.976zm-163.978 365.876c-35.187 0-69.794-9.18-100.15-26.557-.26-.173-.527-.338-.799-.496-3.963-2.288-6.798-5.981-7.982-10.401s-.576-9.038 1.712-13.001c3.053-5.287 8.749-8.57 14.865-8.57 2.858 0 5.693.733 8.283 2.159.167.104.342.21.531.32 25.311 14.576 54.198 22.28 83.54 22.28 92.434 0 167.634-75.2 167.634-167.634 0-44.777-17.438-86.874-49.099-118.533-31.662-31.662-73.758-49.1-118.535-49.1-92.433 0-167.633 75.2-167.633 167.633 0 8.284 6.716 15 15 15h11.987l-44.121 44.12-44.12-44.12h11.987c8.284 0 15-6.716 15-15 .001-111.328 90.572-201.9 201.9-201.9 53.929 0 104.63 21.002 142.765 59.137 38.134 38.133 59.135 88.833 59.135 142.763 0 111.328-90.572 201.9-201.9 201.9z"/></g></svg>