<svg id="Layer_1" enable-background="new 0 0 512 512" height="512" viewBox="0 0 512 512" width="512" xmlns="http://www.w3.org/2000/svg"><g><g><path d="m352.4 241h-57.3v-73.367c0-8.284-6.716-15-15-15s-15 6.716-15 15v88.367c0 8.284 6.716 15 15 15h72.3c8.284 0 15-6.716 15-15s-6.716-15-15-15z" fill="#265c76"/><path d="m444.078 92.024c-43.801-43.801-102.036-67.924-163.978-67.924s-120.176 24.122-163.976 67.922c-40.249 40.249-63.88 92.678-67.449 148.978h-33.675c-6.067 0-11.536 3.654-13.858 9.26-2.321 5.605-1.038 12.057 3.252 16.347l80.333 80.334c2.813 2.813 6.628 4.394 10.606 4.394s7.794-1.58 10.606-4.394l80.334-80.334c4.29-4.29 5.573-10.741 3.252-16.347-2.322-5.605-7.791-9.26-13.858-9.26h-32.389c7.497-68.862 65.998-122.633 136.821-122.633 36.764 0 71.326 14.316 97.321 40.312 25.996 25.995 40.313 60.558 40.313 97.321 0 75.891-61.742 137.633-137.634 137.633-23.982 0-47.582-6.26-68.221-18.075-.188-.12-.385-.24-.595-.362-7.162-4.135-15.301-6.32-23.538-6.32-16.8 0-32.451 9.03-40.846 23.568-6.296 10.903-7.969 23.605-4.71 35.767 3.156 11.784 10.578 21.692 20.955 28.021.315.217.641.422.978.617 35.109 20.314 75.212 31.051 115.978 31.051 61.943 0 120.179-24.122 163.979-67.922s67.921-102.035 67.921-163.978-24.122-120.178-67.922-163.976z" fill="#ff5b5b"/></g><path d="m352.4 241h-57.3v-73.367c0-8.284-6.716-15-15-15v118.367h72.3c8.284 0 15-6.716 15-15s-6.716-15-15-15z" fill="#1d4659"/><path d="m444.078 92.024c-43.801-43.801-102.036-67.924-163.978-67.924v94.268c36.764 0 71.326 14.316 97.321 40.312 25.996 25.995 40.313 60.558 40.313 97.321 0 75.891-61.742 137.633-137.634 137.633v94.266c61.943 0 120.179-24.122 163.979-67.922s67.921-102.035 67.921-163.978-24.122-120.178-67.922-163.976z" fill="#ff0059"/></g></svg>