<svg id="Layer_1" enable-background="new 0 0 512 512" height="512" viewBox="0 0 512 512" width="512" xmlns="http://www.w3.org/2000/svg"><g><path d="m280.1 152.633c-8.284 0-15 6.716-15 15v88.367c0 8.284 6.716 15 15 15h72.3c8.284 0 15-6.716 15-15s-6.716-15-15-15h-57.3v-73.367c0-8.284-6.716-15-15-15z"/><path d="m444.079 92.024c-43.802-43.801-102.037-67.924-163.979-67.924s-120.176 24.122-163.976 67.922c-40.248 40.249-63.88 92.678-67.449 148.978h-33.675c-6.067 0-11.537 3.654-13.858 9.26-2.321 5.605-1.038 12.057 3.251 16.347l80.333 80.334c2.813 2.813 6.628 4.394 10.607 4.394 3.978 0 7.793-1.58 10.606-4.394l80.334-80.334c4.29-4.29 5.573-10.741 3.252-16.347-2.322-5.605-7.792-9.26-13.858-9.26h-32.388c7.497-68.862 65.997-122.633 136.821-122.633 36.764 0 71.326 14.316 97.321 40.312 25.996 25.995 40.313 60.558 40.313 97.321 0 75.891-61.742 137.633-137.634 137.633-23.982 0-47.582-6.26-68.221-18.075-.188-.12-.385-.24-.595-.362-7.162-4.135-15.301-6.32-23.538-6.32-16.8 0-32.451 9.03-40.846 23.568-6.296 10.903-7.969 23.606-4.71 35.767 3.156 11.78 10.574 21.687 20.946 28.016.318.219.647.427.987.623 35.107 20.313 75.211 31.05 115.977 31.05 61.943 0 120.178-24.122 163.979-67.922s67.921-102.035 67.921-163.978-24.122-120.178-67.921-163.976z"/></g></svg>