<?xml version="1.0" encoding="iso-8859-1"?>
<!-- Generator: Adobe Illustrator 19.0.0, SVG Export Plug-In . SVG Version: 6.00 Build 0)  -->
<svg version="1.1" id="Capa_1" xmlns="http://www.w3.org/2000/svg" xmlns:xlink="http://www.w3.org/1999/xlink" x="0px" y="0px"
	 viewBox="0 0 512 512" style="enable-background:new 0 0 512 512;" xml:space="preserve">
<g>
	<g>
		<path d="M308.604,276.759h-27.398l-13.97-42.558c-1.04-3.166-4.053-5.272-7.374-5.157c-3.331,0.11-6.189,2.405-7.017,5.634
			l-14.012,54.655l-2.844-7.68c-1.09-2.942-3.896-4.896-7.033-4.896h-25.156c-3.146,0-5.957,1.963-7.041,4.916l-14.108,38.451
			l-25.749-98.702c-0.847-3.248-3.75-5.537-7.105-5.604c-0.052-0.002-0.102-0.002-0.152-0.002c-3.294,0-6.212,2.153-7.174,5.316
			l-16.974,55.772H95.139c-4.143,0-7.5,3.357-7.5,7.5s3.357,7.5,7.5,7.5h35.913c3.301,0,6.214-2.158,7.175-5.316l10.861-35.687
			l25.094,96.191c0.827,3.172,3.62,5.439,6.896,5.598c0.121,0.006,0.243,0.009,0.364,0.009c3.131,0,5.95-1.953,7.038-4.916
			l20.557-56.024h14.697l9.368,25.3c1.14,3.076,4.156,5.063,7.422,4.886c3.276-0.17,6.062-2.45,6.876-5.628l13.595-53.028
			l7.651,23.31c1.011,3.079,3.885,5.161,7.126,5.161h32.829c4.143,0,7.5-3.357,7.5-7.5S312.746,276.759,308.604,276.759z"/>
	</g>
</g>
<g>
	<g>
		<path d="M494.04,143.253c-4.062-0.805-8.014,1.82-8.828,5.882c-10.37,51.792-69.095,83.175-82.401,89.675
			c-0.301,0.048-0.582,0.026-0.768-0.001c-38.897-18.895-79.353-53.961-83.785-97.455c-5.033-49.36,52.086-61.408,71.535-27.192
			c0.292,0.513,0.639,0.982,1.031,1.403c6.694,7.589,16.633,7.237,22.999-0.08c0.37-0.408,0.699-0.86,0.976-1.351
			c15.84-28.011,56.931-25.403,69.128,4.318c1.572,3.832,5.953,5.664,9.787,4.091c3.832-1.572,5.663-5.954,4.091-9.787
			c-16.771-40.864-72.998-44.946-95.519-6.948c-2.855-4.794-6.407-9.039-10.478-12.648v-2.688c0-19.111-15.548-34.66-34.659-34.66
			h-63.536v-4.546c0-10.753-8.749-19.501-19.501-19.501h-40.846V19.571C233.267,8.78,224.487,0,213.696,0h-23.653
			c-10.792,0-19.571,8.78-19.571,19.571v12.194h-40.846c-10.753,0-19.501,8.748-19.501,19.501v4.546H46.591
			c-19.111,0-34.66,15.549-34.66,34.66v386.866c0,19.111,15.549,34.66,34.66,34.66H184.37c4.143,0,7.5-3.357,7.5-7.5
			s-3.357-7.5-7.5-7.5H46.591c-10.841,0-19.659-8.819-19.659-19.659V90.474c0-10.841,8.819-19.659,19.659-19.659h63.535v4.177v0.07
			c0,10.753,8.749,19.501,19.501,19.501h0.07h2.746v13.361H55.624c-7.453,0-13.518,5.913-13.518,13.183V468.64
			c0,7.269,6.063,13.183,13.518,13.183h210.912c1.924,0,3.883-0.775,5.304-2.196l87.599-87.598c1.331-1.332,2.196-3.246,2.196-5.304
			V231.769c4.992,3.663,10.121,7.1,15.176,10.216V477.34c0,10.841-8.818,19.659-19.658,19.659H219.372c-4.143,0-7.5,3.357-7.5,7.5
			c0,4.143,3.357,7.5,7.5,7.5h137.78c19.111,0,34.659-15.549,34.659-34.66V250.463c1.676,0.861,3.142,1.584,4.341,2.159
			c0.047,0.022,0.094,0.045,0.141,0.066c3.542,1.606,9.253,1.457,12.428-0.072c7.552-3.641,27.194-13.897,46.417-30.438
			c24.65-21.211,39.717-44.796,44.784-70.099C500.735,148.019,498.102,144.067,494.04,143.253z M293.616,75.063v-0.07v-4.178h63.537
			c8.253,0,15.333,5.111,18.243,12.335c-18.461-7.073-41.139-3.611-56.931,12.212c-3.761,3.768-6.889,7.999-9.336,12.564h-37.83
			V94.564h2.746h0.07C284.867,94.564,293.616,85.815,293.616,75.063z M185.473,19.571L185.473,19.571
			c0.001-2.478,2.094-4.57,4.571-4.57h23.653c2.478,0,4.57,2.093,4.57,4.57v12.194h-32.795V19.571z M129.697,79.562
			c-2.477,0-4.57-2.093-4.57-4.571c0-8.443,0-14.858,0-23.724c0-2.439,2.061-4.5,4.5-4.5c6.394,0,138.156,0,144.489,0
			c2.439,0,4.5,2.061,4.5,4.5v12.048v11.678c0,2.478-2.093,4.57-4.57,4.57C270.922,79.562,134.27,79.562,129.697,79.562z
			 M147.444,107.924V94.563h108.855v13.361H147.444z M256.298,122.924v11.814c0,0.854-0.694,1.548-1.548,1.548H148.992
			c-0.854,0-1.548-0.694-1.548-1.548v-11.814H256.298z M274.036,456.215v-61.991h61.991L274.036,456.215z M346.635,379.223h-74.081
			c-7.453,0-13.518,5.913-13.518,13.183v74.416H57.107V122.924h75.336v11.814c0,9.125,7.423,16.549,16.549,16.549H254.75
			c9.126,0,16.549-7.424,16.549-16.549v-11.814h32.511c-4.827,25.099,6.761,54.499,22.214,74.667
			c6.285,8.226,13.367,15.578,20.61,22.05V379.223z"/>
	</g>
</g>
<g>
</g>
<g>
</g>
<g>
</g>
<g>
</g>
<g>
</g>
<g>
</g>
<g>
</g>
<g>
</g>
<g>
</g>
<g>
</g>
<g>
</g>
<g>
</g>
<g>
</g>
<g>
</g>
<g>
</g>
</svg>
