<?xml version="1.0" encoding="UTF-8" standalone="no"?>
<!-- Created with Inkscape (http://www.inkscape.org/) -->

<svg
   version="1.1"
   id="svg1125"
   xml:space="preserve"
   width="682.66669"
   height="682.66669"
   viewBox="0 0 682.66669 682.66669"
   xmlns="http://www.w3.org/2000/svg"
   xmlns:svg="http://www.w3.org/2000/svg"><defs
     id="defs1129"><clipPath
       clipPathUnits="userSpaceOnUse"
       id="clipPath1139"><path
         d="M 0,512 H 512 V 0 H 0 Z"
         id="path1137" /></clipPath></defs><g
     id="g1131"
     transform="matrix(1.3333333,0,0,-1.3333333,0,682.66667)"><g
       id="g1133"><g
         id="g1135"
         clip-path="url(#clipPath1139)"><g
           id="g1141"
           transform="translate(256.0029,14.9911)"><path
             d="M 0,0 H -0.006 C -25.4,0 -45.986,20.586 -45.986,45.98 V 60 H 45.98 V 45.98 C 45.98,20.586 25.394,0 0,0 Z"
             style="fill:none;stroke:#000000;stroke-width:30;stroke-linecap:round;stroke-linejoin:round;stroke-miterlimit:10;stroke-dasharray:none;stroke-opacity:1"
             id="path1143" /></g><g
           id="g1145"
           transform="translate(14.9948,361.3439)"><path
             d="M 0,0 C 11.621,53.826 40.87,101.17 81.38,135.664"
             style="fill:none;stroke:#000000;stroke-width:30;stroke-linecap:round;stroke-linejoin:round;stroke-miterlimit:10;stroke-dasharray:none;stroke-opacity:1"
             id="path1147" /></g><g
           id="g1149"
           transform="translate(415.6264,497.0069)"><path
             d="M 0,0 C 40.51,-34.494 69.758,-81.838 81.379,-135.663"
             style="fill:none;stroke:#000000;stroke-width:30;stroke-linecap:round;stroke-linejoin:round;stroke-miterlimit:10;stroke-dasharray:none;stroke-opacity:1"
             id="path1151" /></g><g
           id="g1153"
           transform="translate(72.6638,343.7949)"><path
             d="M 0,0 C 7.831,41.67 29.564,78.497 60.181,105.463"
             style="fill:none;stroke:#000000;stroke-width:30;stroke-linecap:round;stroke-linejoin:round;stroke-miterlimit:10;stroke-dasharray:none;stroke-opacity:1"
             id="path1155" /></g><g
           id="g1157"
           transform="translate(379.1576,449.2553)"><path
             d="M 0,0 C 30.616,-26.966 52.348,-63.792 60.179,-105.461"
             style="fill:none;stroke:#000000;stroke-width:30;stroke-linecap:round;stroke-linejoin:round;stroke-miterlimit:10;stroke-dasharray:none;stroke-opacity:1"
             id="path1159" /></g><g
           id="g1161"
           transform="translate(382.5405,212.0343)"><path
             d="m 0,0 v 97.227 c 0,69.886 -56.654,126.54 -126.54,126.54 h -10e-4 c -69.886,0 -126.54,-56.654 -126.54,-126.54 V 0 c 0,-19.761 -7.309,-38.823 -20.52,-53.518 v 0 c -13.211,-14.695 -20.52,-33.757 -20.52,-53.518 v -21.457 c 0,-4.722 3.828,-8.55 8.55,-8.55 H 32.49 c 4.722,0 8.55,3.828 8.55,8.55 v 21.457 c 0,19.761 -7.309,38.823 -20.52,53.518 v 0 C 7.309,-38.823 0,-19.761 0,0 Z"
             style="fill:none;stroke:#000000;stroke-width:30;stroke-linecap:round;stroke-linejoin:round;stroke-miterlimit:10;stroke-dasharray:none;stroke-opacity:1"
             id="path1163" /></g><g
           id="g1165"
           transform="translate(101.8486,134.9911)"><path
             d="M 0,0 H 314.626"
             style="fill:none;stroke:#000000;stroke-width:30;stroke-linecap:round;stroke-linejoin:round;stroke-miterlimit:10;stroke-dasharray:none;stroke-opacity:1"
             id="path1167" /></g><g
           id="g1169"
           transform="translate(226,433.4603)"><path
             d="m 0,0 v 33.781 c 0,16.568 13.431,30 30,30 16.569,0 30,-13.432 30,-30 V 0"
             style="fill:none;stroke:#000000;stroke-width:30;stroke-linecap:round;stroke-linejoin:round;stroke-miterlimit:10;stroke-dasharray:none;stroke-opacity:1"
             id="path1171" /></g></g></g></g></svg>
