<svg id="Capa_1" enable-background="new 0 0 512.017 512.017" height="512" viewBox="0 0 512.017 512.017" width="512" xmlns="http://www.w3.org/2000/svg"><path d="m256.299 512.012h-.381c-25.277 0-45.768-20.491-45.768-45.768v-14.201h91.918v14.201c0 25.277-20.491 45.768-45.769 45.768z"/><path d="m15.018 165.672c-1.049 0-2.113-.11-3.18-.341-8.098-1.748-13.245-9.73-11.497-17.828 12.012-55.639 42.667-106.75 86.317-143.919 6.308-5.371 15.775-4.61 21.145 1.696 5.371 6.308 4.612 15.774-1.696 21.145-38.664 32.923-65.812 78.171-76.442 127.409-1.517 7.031-7.735 11.838-14.647 11.838z"/><path d="m496.999 165.672c-6.913 0-13.129-4.806-14.647-11.837-10.63-49.238-37.778-94.486-76.441-127.408-6.308-5.371-7.067-14.838-1.696-21.145 5.37-6.308 14.836-7.068 21.145-1.696 43.65 37.167 74.304 88.279 86.316 143.918 1.748 8.098-3.399 16.08-11.497 17.828-1.066.229-2.131.34-3.18.34z"/><path d="m72.689 183.22c-.919 0-1.851-.085-2.787-.261-8.142-1.53-13.501-9.371-11.971-17.512 8.233-43.81 31.321-84.278 65.009-113.949 6.216-5.477 15.695-4.874 21.17 1.342 5.476 6.217 4.874 15.695-1.342 21.17-28.691 25.271-48.35 59.711-55.354 96.977-1.354 7.207-7.651 12.233-14.725 12.233z"/><path d="m439.328 183.221c-7.075 0-13.371-5.026-14.725-12.232-7.004-37.265-26.661-71.706-55.352-96.976-6.217-5.476-6.817-14.954-1.342-21.171 5.476-6.216 14.954-6.817 21.171-1.342 33.686 29.671 56.773 70.138 65.006 113.947 1.53 8.142-3.83 15.982-11.972 17.512-.934.177-1.867.262-2.786.262z"/><path d="m427.272 362.074c-3.562-6.622-7.912-12.855-13.024-18.542-10.746-11.953-16.664-27.388-16.664-43.461v-97.177c0-78.01-63.465-141.475-141.475-141.475s-141.475 63.465-141.475 141.475v97.177c0 16.073-5.918 31.508-16.664 43.462-5.112 5.686-9.462 11.919-13.024 18.541z"/><path d="m74.823 392.074c-.784 4.924-1.208 9.926-1.208 14.978v21.446c0 12.983 10.563 23.546 23.546 23.546h317.896c12.983 0 23.546-10.563 23.546-23.546v-21.446c0-5.051-.424-10.054-1.208-14.978z"/><path d="m256.109 31.42c10.125 0 20.153.903 29.984 2.649v-4.072c0-16.56-13.424-29.984-29.984-29.984s-29.984 13.425-29.984 29.984v4.051c9.738-1.725 19.757-2.628 29.984-2.628z"/></svg>