<svg height="512pt" viewBox="0 -28 512 511" width="512pt" xmlns="http://www.w3.org/2000/svg"><path d="m512 129.621094c0-24.277344-19.679688-43.96875-43.96875-43.96875-14.621094 0-341.21875-.003906-354.074219.003906v-73.535156c0-6.417969-5.203125-11.621094-11.621093-11.621094h-60.019532c-23.183594 0-42.164062 18.898438-42.3085935 42.046875l-.00390625-.25v.472656c-.00390625.015625-.00390625.03125-.00390625.046875v.566406.042969 322.703125c0 26.355469 21.367188 47.734375 47.726562 47.734375h315.515626v30.957031c0 6.417969 5.203124 11.621094 11.621093 11.621094h94.820313c23.269531 0 42.308594-19.039062 42.308594-42.308594v-.269531h.007812zm0 0" fill="#60c8dd"/><path d="m512 129.621094v284.238281h-464.273438c-20.410156 0-37.832031-12.8125-44.648437-30.839844-.050781-.125-.089844-.261719-.144531-.386719-1.902344-5.148437-2.933594-10.703124-2.933594-16.507812v-323.828125l.0859375 3.660156c1.1640625 19.410157 15.5703125 35.386719 34.2421875 38.988281 2.589844.5 5.25.757813 7.976563.757813 102.726562-.066406 25.277343-.050781 425.726562-.050781 23.507812 0 42.710938 18.453125 43.917969 41.660156.03125.757812.050781 1.527344.050781 2.308594zm0 0" fill="#c2eaf2"/><path d="m512 129.621094v237.429687h-429.949219c-19.898437 0-36.949219-12.179687-44.113281-29.488281-2.332031-5.617188-3.609375-11.785156-3.609375-18.246094v-234.371094c2.589844.5 5.25.757813 7.976563.757813 102.726562-.066406 25.277343-.050781 425.726562-.050781 23.507812 0 42.710938 18.453125 43.917969 41.660156.03125.757812.050781 1.527344.050781 2.308594zm0 0" fill="#def4f8"/><path d="m113.957031 12.121094v73.574218h-71.640625c-23.273437 0-42.316406-19.042968-42.316406-42.316406v-.5625c0-23.273437 19.042969-42.316406 42.316406-42.316406h60.019532c6.417968 0 11.621093 5.203125 11.621093 11.621094zm0 0" fill="#2cb3cd"/><path d="m512 129.621094v151.074218h-215.953125c-2.871094 0-5.199219 2.332032-5.199219 5.203126v91.535156c0 2.871094-2.332031 5.199218-5.203125 5.199218h-280.328125s-1.09375-.007812-2.382812 0c-1.902344-5.148437-2.933594-10.703124-2.933594-16.507812v-28.457031c1.71875-.15625-12.492188-.105469 222.027344-.105469 6.699218 0 12.128906-5.429688 12.128906-12.128906v-39.902344c0-2.859375-2.308594-5.179688-5.167969-5.199219-7.542969-.0625-21.511719.050781-29.105469.125-2.890624.03125-5.253906-2.308593-5.253906-5.199219v-37.386718c0-2.871094 2.332032-5.199219 5.203125-5.199219h105.398438c2.871093 0 5.203125-2.332031 5.203125-5.203125v-46.285156c0-2.871094-2.332032-5.203125-5.203125-5.203125h-45.765625c-2.871094 0-5.203125-2.328125-5.203125-5.199219v-85.128906h44.386719v41.617187h213.152343l.148438.042969c.03125.757812.050781 1.527344.050781 2.308594zm0 0" fill="#82cd64"/><path d="m469.683594 171.261719h-94.820313c-6.421875 0-11.625 5.203125-11.625 11.621093 0 9.609376.003907 237.804688.003907 261.933594 0 6.421875 5.199218 11.621094 11.621093 11.621094h94.820313c23.269531 0 42.304687-19.035156 42.304687-42.304688v-.582031c0-.421875-.019531-.84375-.03125-1.265625h.035157v-281.699218l-.324219 3.539062c-2.554688 20.859375-20.460938 37.136719-41.984375 37.136719zm0 0" fill="#44bfd7"/><path d="m215.214844 143.488281c0 34.257813-17.703125 64.378907-44.453125 81.722657-4.03125 2.613281-7.394531 6.128906-9.765625 10.304687l-29.984375 52.976563-4.96875 8.769531c-.074219.140625-.152344.273437-.242188.398437-3.742187 5.941406-12.558593 5.808594-16.078125-.398437l-34.953125-61.746094c-2.363281-4.175781-5.71875-7.6875-9.742187-10.292969-27.136719-17.582031-44.964844-48.3125-44.457032-83.167968.835938-58.292969 53.195313-103.054688 110.476563-95.003907 47.527344 6.417969 84.167969 47.152344 84.167969 96.4375zm0 0" fill="#5db33a"/><path d="m215.214844 143.488281c0 34.257813-17.703125 64.378907-44.453125 81.722657-4.03125 2.613281-7.394531 6.128906-9.765625 10.304687l-29.984375 52.976563-29.988281-52.976563c-2.363282-4.175781-5.722657-7.6875-9.746094-10.292969-27.140625-17.582031-44.96875-48.3125-44.460938-83.167968.695313-48.441407 37.300782-88.636719 84.230469-95.003907 47.527344 6.417969 84.167969 47.152344 84.167969 96.4375zm0 0" fill="#82cd64"/><path d="m182.273438 143.421875c0 32.152344-23.363282 58.835937-54.023438 64.027344-3.546875.601562-7.199219.914062-10.917969.914062-35.859375 0-64.933593-29.070312-64.933593-64.9375 0-40.269531 36.328124-70.800781 75.855468-64.011719 30.664063 5.1875 54.019532 31.871094 54.019532 64.007813zm0 0" fill="#498d2d"/><path d="m182.273438 143.421875c0 32.152344-23.363282 58.835937-54.023438 64.027344-30.660156-5.195313-54.019531-31.882813-54.019531-64.027344 0-32.136719 23.359375-58.820313 54.023437-64.011719 30.664063 5.191406 54.019532 31.875 54.019532 64.011719zm0 0" fill="#5ca33b"/></svg>