<?xml version="1.0" encoding="UTF-8" standalone="no"?>
<!-- Created with Inkscape (http://www.inkscape.org/) -->

<svg
   version="1.1"
   id="svg4701"
   width="682.66669"
   height="682.66669"
   viewBox="0 0 682.66669 682.66669"
   xmlns="http://www.w3.org/2000/svg"
   xmlns:svg="http://www.w3.org/2000/svg">
  <defs
     id="defs4705">
    <clipPath
       clipPathUnits="userSpaceOnUse"
       id="clipPath4715">
      <path
         d="M 0,512 H 512 V 0 H 0 Z"
         id="path4713" />
    </clipPath>
  </defs>
  <g
     id="g4707"
     transform="matrix(1.3333333,0,0,-1.3333333,0,682.66667)">
    <g
       id="g4709">
      <g
         id="g4711"
         clip-path="url(#clipPath4715)">
        <g
           id="g4717"
           transform="translate(502.1099,322.2402)">
          <path
             d="m 0,0 c 0,23.34 -18.92,42.27 -42.27,42.27 -14.058,0 -328.036,0.003 -340.396,-0.005 v 70.693 c 0,6.171 -5.002,11.173 -11.173,11.173 h -57.702 c -22.288,0 -40.533,-18.166 -40.673,-40.422 l -0.006,0.241 v -0.456 c 0,-0.015 -10e-4,-0.028 -10e-4,-0.043 v -0.544 c 0,-0.014 10e-4,-0.028 10e-4,-0.043 V -227.37 c 0,-25.34 20.54,-45.89 45.88,-45.89 h 303.328 v -29.761 c 0,-6.171 5.003,-11.173 11.174,-11.173 h 91.158 c 22.369,0 40.672,18.301 40.672,40.672 v 0.262 H 0 Z"
             style="fill:#60c8dd;fill-opacity:1;fill-rule:nonzero;stroke:none"
             id="path4719" />
        </g>
        <g
           id="g4721"
           transform="translate(502.1099,322.2402)">
          <path
             d="m 0,0 v -273.26 h -446.34 c -19.62,0 -36.37,12.32 -42.92,29.65 -0.05,0.12 -0.09,0.25 -0.14,0.37 -1.83,4.95 -2.82,10.29 -2.82,15.87 V 83.949 l 0.08,-3.519 c 1.12,-18.66 14.97,-34.02 32.92,-37.481 2.49,-0.479 5.05,-0.729 7.67,-0.729 98.759,0.064 24.301,0.05 409.28,0.05 22.6,0 41.06,-17.741 42.22,-40.05 C -0.02,1.49 0,0.75 0,0"
             style="fill:#c2eaf2;fill-opacity:1;fill-rule:nonzero;stroke:none"
             id="path4723" />
        </g>
        <g
           id="g4725"
           transform="translate(502.1099,322.2402)">
          <path
             d="m 0,0 v -228.26 h -413.34 c -19.13,0 -35.52,11.709 -42.41,28.35 -2.24,5.4 -3.47,11.33 -3.47,17.54 V 42.949 c 2.49,-0.479 5.05,-0.729 7.67,-0.729 98.759,0.064 24.301,0.05 409.28,0.05 22.6,0 41.06,-17.741 42.22,-40.05 C -0.02,1.49 0,0.75 0,0"
             style="fill:#def4f8;fill-opacity:1;fill-rule:nonzero;stroke:none"
             id="path4727" />
        </g>
        <g
           id="g4729"
           transform="translate(119.4438,435.1982)">
          <path
             d="m 0,0 v -70.73 h -68.875 c -22.374,0 -40.68,18.305 -40.68,40.679 v 0.544 c 0,22.374 18.306,40.68 40.68,40.68 h 57.702 C -5.003,11.173 0,6.171 0,0"
             style="fill:#2cb3cd;fill-opacity:1;fill-rule:nonzero;stroke:none"
             id="path4731" />
        </g>
        <g
           id="g4733"
           transform="translate(502.1099,322.2402)">
          <path
             d="m 0,0 v -145.24 h -207.61 c -2.76,0 -5,-2.24 -5,-5 v -88 c 0,-2.76 -2.24,-5 -5,-5 h -269.5 c 0,0 -1.05,0.01 -2.29,0 -1.83,4.95 -2.82,10.29 -2.82,15.87 v 27.36 c 1.651,0.149 -12.01,0.1 213.45,0.1 6.44,0 11.66,5.22 11.66,11.66 v 38.359 c 0,2.75 -2.22,4.981 -4.97,5 -7.25,0.061 -20.68,-0.049 -27.98,-0.119 -2.78,-0.03 -5.05,2.22 -5.05,5 v 35.94 c 0,2.759 2.24,5 5,5 h 101.33 c 2.76,0 5,2.24 5,5 v 44.5 c 0,2.759 -2.24,5 -5,5 h -44 c -2.76,0 -5,2.24 -5,5 v 81.84 h 42.67 V 2.26 H -0.19 L -0.05,2.22 C -0.02,1.49 0,0.75 0,0"
             style="fill:#82cd64;fill-opacity:1;fill-rule:nonzero;stroke:none"
             id="path4735" />
        </g>
        <g
           id="g4737"
           transform="translate(461.4302,282.207)">
          <path
             d="m 0,0 h -91.16 c -6.171,0 -11.173,-5.003 -11.173,-11.174 0,-9.235 0.001,-228.619 0.001,-251.814 0,-6.171 5.002,-11.173 11.173,-11.173 h 91.158 c 22.37,0 40.672,18.302 40.672,40.672 v 0.559 c 0,0.409 -0.019,0.812 -0.031,1.217 h 0.034 V 39.105 L 40.363,35.703 C 37.902,15.647 20.688,0 0,0"
             style="fill:#44bfd7;fill-opacity:1;fill-rule:nonzero;stroke:none"
             id="path4739" />
        </g>
        <g
           id="g4741"
           transform="translate(216.7915,308.9082)">
          <path
             d="m 0,0 c 0,-32.935 -17.019,-61.894 -42.737,-78.565 -3.876,-2.512 -7.11,-5.894 -9.388,-9.91 l -28.826,-50.928 -4.777,-8.433 c -0.074,-0.134 -0.147,-0.261 -0.234,-0.381 -3.595,-5.713 -12.074,-5.586 -15.455,0.381 l -33.603,59.361 c -2.272,4.016 -5.499,7.391 -9.368,9.897 -26.086,16.904 -43.225,46.445 -42.737,79.954 0.803,56.042 51.14,99.074 106.208,91.334 C -35.227,86.543 0,47.381 0,0"
             style="fill:#5db33a;fill-opacity:1;fill-rule:nonzero;stroke:none"
             id="path4743" />
        </g>
        <g
           id="g4745"
           transform="translate(216.7915,308.9082)">
          <path
             d="m 0,0 c 0,-32.935 -17.019,-61.894 -42.737,-78.565 -3.876,-2.512 -7.11,-5.894 -9.388,-9.91 l -28.826,-50.928 -28.832,50.928 c -2.272,4.016 -5.499,7.391 -9.367,9.897 -26.093,16.904 -43.232,46.445 -42.744,79.954 0.668,46.572 35.861,85.214 80.977,91.334 C -35.227,86.543 0,47.381 0,0"
             style="fill:#82cd64;fill-opacity:1;fill-rule:nonzero;stroke:none"
             id="path4747" />
        </g>
        <g
           id="g4749"
           transform="translate(185.1221,308.9697)">
          <path
             d="m 0,0 c 0,-30.908 -22.461,-56.563 -51.938,-61.551 -3.412,-0.579 -6.92,-0.882 -10.495,-0.882 -34.476,0 -62.426,27.951 -62.426,62.433 0,38.715 34.924,68.065 72.926,61.539 C -22.455,56.552 0,30.896 0,0"
             style="fill:#498d2d;fill-opacity:1;fill-rule:nonzero;stroke:none"
             id="path4751" />
        </g>
        <g
           id="g4753"
           transform="translate(185.1221,308.9697)">
          <path
             d="m 0,0 c 0,-30.908 -22.461,-56.563 -51.938,-61.551 -29.478,4.993 -51.933,30.649 -51.933,61.551 0,30.896 22.455,56.552 51.938,61.539 C -22.455,56.552 0,30.896 0,0"
             style="fill:#5ca33b;fill-opacity:1;fill-rule:nonzero;stroke:none"
             id="path4755" />
        </g>
        <g
           id="g4757"
           transform="translate(216.6909,308.918)">
          <path
             d="m 0,0 c 0,52.127 -42.62,94.299 -94.913,93.57 -50.383,-0.702 -91.509,-41.807 -92.235,-92.19 -0.483,-33.515 16.658,-63.056 42.747,-79.963 3.869,-2.507 7.098,-5.883 9.37,-9.896 l 33.607,-59.368 c 3.453,-6.098 12.237,-6.098 15.69,0 l 33.607,59.368 c 2.275,4.019 5.514,7.396 9.389,9.909 C -17.018,-61.895 0,-32.937 0,0 Z"
             style="fill:none;stroke:#000000;stroke-width:15;stroke-linecap:round;stroke-linejoin:round;stroke-miterlimit:10;stroke-dasharray:none;stroke-opacity:1"
             id="path4759" />
        </g>
        <g
           id="g4761"
           transform="translate(123.1675,251.7158)">
          <path
             d="m 0,0 c -18.419,0 -35.247,8.487 -46.167,23.284 -18.764,25.426 -13.343,61.377 12.083,80.141 9.928,7.328 21.676,11.201 33.974,11.201 18.419,0 35.246,-8.486 46.166,-23.283 C 64.82,65.917 59.398,29.966 33.973,11.202 24.043,3.874 12.296,0 0,0 Z"
             style="fill:none;stroke:#000000;stroke-width:16;stroke-linecap:round;stroke-linejoin:round;stroke-miterlimit:10;stroke-dasharray:290, 30;stroke-dashoffset:0;stroke-opacity:1"
             id="path4763" />
        </g>
        <g
           id="g4765"
           transform="translate(502.1143,48.9844)">
          <path
             d="m 0,0 h -446.34 c -25.344,0 -45.889,20.545 -45.889,45.889 v 307.799 h 0.081 c 1.275,-21.24 19.051,-38.212 40.593,-38.212 l 76.307,0.049 H -42.271 C -18.925,315.525 0,296.6 0,273.254 Z"
             style="fill:none;stroke:#000000;stroke-width:15;stroke-linecap:round;stroke-linejoin:round;stroke-miterlimit:10;stroke-dasharray:none;stroke-opacity:1"
             id="path4767" />
        </g>
        <g
           id="g4769"
           transform="translate(119.4438,435.1982)">
          <path
             d="m 0,0 v -70.73 h -68.875 c -22.374,0 -40.68,18.305 -40.68,40.679 v 0.544 c 0,22.374 18.306,40.68 40.68,40.68 h 57.702 C -5.003,11.173 0,6.171 0,0 Z"
             style="fill:none;stroke:#000000;stroke-width:15;stroke-linecap:round;stroke-linejoin:round;stroke-miterlimit:10;stroke-dasharray:285, 30;stroke-dashoffset:0;stroke-opacity:1"
             id="path4771" />
        </g>
        <g
           id="g4773"
           transform="translate(461.4302,282.207)">
          <path
             d="m 0,0 h -91.16 c -6.171,0 -11.173,-5.003 -11.173,-11.174 0,-9.235 0.001,-228.619 0.001,-251.814 0,-6.171 5.002,-11.173 11.173,-11.173 h 91.158 c 22.37,0 40.672,18.302 40.672,40.672 v 0.559 c 0,0.409 -0.019,0.812 -0.031,1.217 h 0.034 V 35.703 H 40.363 C 37.902,15.647 20.688,0 0,0 Z"
             style="fill:none;stroke:#000000;stroke-width:15;stroke-linecap:round;stroke-linejoin:round;stroke-miterlimit:10;stroke-dasharray:270, 30;stroke-dashoffset:0;stroke-opacity:1"
             id="path4775" />
        </g>
        <g
           id="g4777"
           transform="translate(297,363)">
          <path
             d="M 0,0 V -38.5 H 204.917"
             style="fill:none;stroke:#000000;stroke-width:15;stroke-linecap:round;stroke-linejoin:round;stroke-miterlimit:10;stroke-dasharray:none;stroke-opacity:1"
             id="path4779" />
        </g>
        <g
           id="g4781"
           transform="translate(11,122.3301)">
          <path
             d="M 0,0 H 212.34 C 218.78,0 224,5.221 224,11.66 v 38.362 c 0,2.749 -2.217,4.98 -4.966,5 -7.258,0.054 -20.687,-0.055 -27.989,-0.125 -2.779,-0.025 -5.045,2.22 -5.045,5 V 95.84 c 0,2.762 2.239,5 5,5 h 101.33 c 2.761,0 5,2.238 5,5 v 44.5 c 0,2.762 -2.239,5 -5,5 h -44 c -2.762,0 -5,2.238 -5,5 v 79"
             style="fill:none;stroke:#000000;stroke-width:15;stroke-linecap:round;stroke-linejoin:round;stroke-miterlimit:10;stroke-dasharray:none;stroke-opacity:1"
             id="path4783" />
        </g>
        <g
           id="g4785"
           transform="translate(358.5,177)">
          <path
             d="m 0,0 h -64 c -2.761,0 -5,-2.238 -5,-5 v -88 c 0,-2.762 -2.239,-5 -5,-5 h -269.5"
             style="fill:none;stroke:#000000;stroke-width:15;stroke-linecap:round;stroke-linejoin:round;stroke-miterlimit:10;stroke-dasharray:250, 30;stroke-dashoffset:0;stroke-opacity:1"
             id="path4787" />
        </g>
      </g>
    </g>
  </g>
</svg>
