<svg height="511pt" viewBox="0 -27 511.99968 511" width="511pt" xmlns="http://www.w3.org/2000/svg"><path d="m164.421875 197.042969c3.410156-2.867188 3.84375-7.960938.96875-11.375-2.875-3.402344-7.972656-3.835938-11.375-.957031-.839844.695312-1.707031 1.382812-2.585937 2.039062-32.507813 23.980469-79.304688 1.078125-79.304688-39.984375 0-48.144531 61.488281-67.964844 89.804688-29.625 10.238281 13.875 12.175781 31.328125 6.75 46.421875-1.503907 4.199219.6875 8.824219 4.875 10.328125 4.210937 1.503906 8.824218-.679687 10.328124-4.875 8.777344-24.480469 2.613282-52.292969-17.242187-70.75-41.585937-38.765625-110.667969-9.3125-110.667969 48.5 0 56.441406 66.296875 86.183594 108.449219 50.277344zm0 0"/><path d="m461.761719 83.128906h-260.164063c-2.492187-3.121094-5.1875-6.117187-8.085937-8.964844-18.332031-18.066406-42.253907-28.363281-67.769531-29.300781v-25.519531c0-10.386719-8.449219-18.84375-18.84375-18.84375h-10.71875c-4.179688 0-7.570313 3.390625-7.570313 7.570312 0 4.179688 3.390625 7.570313 7.570313 7.570313h10.71875c2.046874 0 3.703124 1.664063 3.703124 3.703125v26.054688c-26.511718 2.933593-50.726562 16.175781-67.898437 37.234374-10.636719-1.890624-19.332031-8.816406-23.882813-17.734374 0 0 0 0 0-.011719-11.84375-22.691407 5.195313-49.246094 29.835938-49.246094h17.242188c4.175781 0 7.570312-3.390625 7.570312-7.570313 0-4.179687-3.394531-7.570312-7.570312-7.570312h-17.242188c-28.304688 0-50.003906 24.023438-48.5898438 50.902344-.0117187.019531-.0117187.039062 0 .0625-.06249995.5-.0429687 310.894531-.0429687 311.398437 0 29.71875 24.1757815 53.890625 53.8828125 53.890625h298.601562v22.46875c0 10.398438 8.460938 18.847656 18.84375 18.847656h92.015626c26.273437 0 48.632812-21.191406 48.632812-48.886718v-275.820313c0-27.695312-22.53125-50.234375-50.238281-50.234375zm-156.792969 15.140625h156.792969c15.9375 0 29.425781 10.675781 33.683593 25.242188h-190.476562zm-254.960938.046875c.011719 0 .011719-.007812.011719-.007812 3.765625-5.53125 8.15625-10.621094 13.050781-15.140625h.011719c56.046875-51.972657 145.679688-11.226563 145.679688 63.640625 0 29.574218-14.835938 56.847656-39.6875 72.957031-4.957031 3.21875-9.09375 7.578125-11.941407 12.625-36.683593 64.792969-33.957031 60.695313-35.257812 60.695313s1.371094 3.996093-35.246094-60.695313c-2.855468-5.046875-6.984375-9.40625-11.929687-12.617187-41.144531-26.660157-51.980469-81.371094-24.691407-121.457032zm-34.84375-13.394531c4.601563 4.023437 10.988282 9.015625 18.351563 10.984375-26.597656 45.816406-13.773437 106.296875 32.945313 136.578125 5.933593 3.839844 3.921874 1.949219 40.910156 67.285156 6.378906 11.273438 22.621094 11.292969 29.011718 0 36.902344-65.179687 34.933594-63.429687 40.929688-67.296875 45.699219-29.625 59.117188-88.59375 34.359375-134.207031h35.085937v75.039063c0 6.957031 5.65625 12.617187 12.617188 12.617187h41.886719v39.871094h-99.753907c-6.960937 0-12.617187 5.65625-12.617187 12.617187v36.277344c0 6.8125 5.429687 12.617188 12.734375 12.617188 6.601562-.0625 18.078125-.15625 25.621094-.136719v36.207031c0 2.316406-1.882813 4.199219-4.199219 4.199219h-207.882813zm481.683594 324.527344c0 18.40625-14.972656 33.480469-33.480468 33.480469h-92.015626c-2.035156 0-3.703124-1.65625-3.703124-3.707032 0-11.65625 0-47.328125 0-60.53125 0-4.179687-3.390626-7.570312-7.570313-7.570312s-7.570313 3.390625-7.570313 7.570312v22.921875h-298.601562c-12.496094 0-23.621094-5.945312-30.707031-15.160156h148.238281c4.1875 0 7.570312-3.390625 7.570312-7.570313 0-4.175781-3.382812-7.570312-7.570312-7.570312h-155.34375c-1.199219-5.398438-.929688-7.097656-.929688-28.59375h207.882813c10.664063 0 19.339844-8.675781 19.339844-19.339844v-38.722656c0-6.90625-5.621094-12.566406-12.527344-12.617188-6.59375-.046874-18.148437.035157-25.828125.105469v-31.210937h99.753906c6.957032 0 12.617188-5.660156 12.617188-12.617188v-44.917968c0-6.957032-5.660156-12.617188-12.617188-12.617188h-41.886718v-72.511719h27.929687v32.8125c0 4.183594 3.386719 7.570313 7.570313 7.570313h198.914062c-2.835938 15.835937-16.683594 27.546875-32.945312 27.546875h-92.015626c-10.394531 0-18.84375 8.457031-18.84375 18.855469v87.339843h-57.632812c-6.957031 0-12.617188 5.664063-12.617188 12.617188v86.300781h-80.539062c-4.179688 0-7.570312 3.394531-7.570312 7.570312 0 4.179688 3.390624 7.570313 7.570312 7.570313h83.0625c6.953125 0 12.617188-5.660156 12.617188-12.617187v-86.300782h55.109374v60.804688c0 4.179687 3.390626 7.570312 7.570313 7.570312s7.570313-3.390625 7.570313-7.570312v-163.285156c0-2.050782 1.65625-3.714844 3.703124-3.714844h92.015626c12.878906 0 24.71875-5.058594 33.480468-13.386719zm0 0"/></svg>