<svg height="512pt" viewBox="-64 0 512 512" width="512pt" xmlns="http://www.w3.org/2000/svg"><path d="m379.074219 84.726562-80.335938-80.332031c-2.8125-2.816406-6.625-4.394531-10.605469-4.394531h-241c-25.800781 0-47.132812 20.847656-47.132812 47.132812v417.734376c0 25.804687 20.855469 47.132812 47.132812 47.132812h289.199219c25.800781 0 47.136719-20.847656 47.136719-47.132812v-369.535157c-.003906-3.976562-1.582031-7.792969-4.394531-10.605469zm0 0" fill="#eff6fe"/><path d="m383.464844 95.328125v369.542969c0 26.277344-21.332032 47.128906-47.132813 47.128906h-143.527343v-512h95.328124c3.980469 0 7.789063 1.578125 10.609376 4.390625l80.332031 80.339844c2.808593 2.808593 4.390625 6.621093 4.390625 10.597656zm0 0" fill="#d9e4ef"/><g fill="#3ab4fb"><path d="m191.734375 287.066406h112.464844c8.285156 0 15-6.714844 15-15s-6.714844-15-15-15h-112.464844c-8.285156 0-15 6.714844-15 15s6.714844 15 15 15zm0 0"/><path d="m304.199219 321.332031h-112.464844c-8.285156 0-15 6.71875-15 15 0 8.285157 6.714844 15 15 15h112.464844c8.285156 0 15-6.714843 15-15 0-8.28125-6.714844-15-15-15zm0 0"/><path d="m304.199219 385.601562h-112.464844c-8.285156 0-15 6.714844-15 15 0 8.28125 6.714844 15 15 15h112.464844c8.285156 0 15-6.71875 15-15 0-8.285156-6.714844-15-15-15zm0 0"/></g><path d="m319.203125 272.070312c0 8.28125-6.71875 15-15 15h-111.398437v-30h111.398437c8.28125 0 15 6.710938 15 15zm0 0" fill="#1d9cfd"/><path d="m319.203125 336.328125c0 8.292969-6.71875 15-15 15h-111.398437v-30h111.398437c8.28125 0 15 6.722656 15 15zm0 0" fill="#1d9cfd"/><path d="m319.203125 400.601562c0 8.277344-6.71875 15-15 15h-111.398437v-30h111.398437c8.28125 0 15 6.71875 15 15zm0 0" fill="#1d9cfd"/><path d="m127.464844 257.066406h-48.199219c-8.285156 0-15 6.714844-15 15s6.714844 15 15 15h48.199219c8.285156 0 15-6.714844 15-15s-6.714844-15-15-15zm0 0" fill="#3ab4fb"/><path d="m127.464844 321.332031h-48.199219c-8.285156 0-15 6.71875-15 15 0 8.285157 6.714844 15 15 15h48.199219c8.285156 0 15-6.714843 15-15 0-8.28125-6.714844-15-15-15zm0 0" fill="#3ab4fb"/><path d="m127.464844 385.601562h-48.199219c-8.285156 0-15 6.714844-15 15 0 8.28125 6.714844 15 15 15h48.199219c8.285156 0 15-6.71875 15-15 0-8.285156-6.714844-15-15-15zm0 0" fill="#3ab4fb"/><path d="m298.738281 4.394531c-2.8125-2.816406-6.625-4.394531-10.605469-4.394531h-1.066406v81.398438c0 8.285156 6.714844 15 15 15h81.398438v-1.066407c0-3.976562-1.578125-7.792969-4.394532-10.605469zm0 0" fill="#c1cedb"/><path d="m127.679688 140.546875c-35.316407.457031-63.414063 29.898437-63.414063 65.21875v2.035156c0 8.285157 6.714844 15 15 15h98.539063c8.28125 0 15-6.714843 15-15v-2.992187c0-35.78125-29.238282-64.730469-65.125-64.261719zm0 0" fill="#ff7579"/><path d="m165.605469 102.40625c0 21.0625-17.074219 38.140625-38.136719 38.140625s-38.140625-17.078125-38.140625-38.140625 17.078125-38.140625 38.140625-38.140625 38.136719 17.078125 38.136719 38.140625zm0 0" fill="#ffcfbe"/></svg>