<?xml version="1.0" encoding="UTF-8" standalone="no"?>
<!-- Created with Inkscape (http://www.inkscape.org/) -->

<svg
   version="1.1"
   id="svg648"
   xml:space="preserve"
   width="682.66669"
   height="682.66669"
   viewBox="0 0 682.66669 682.66669"
   xmlns="http://www.w3.org/2000/svg"
   xmlns:svg="http://www.w3.org/2000/svg"><defs
     id="defs652"><clipPath
       clipPathUnits="userSpaceOnUse"
       id="clipPath662"><path
         d="M 0,512 H 512 V 0 H 0 Z"
         id="path660" /></clipPath></defs><g
     id="g654"
     transform="matrix(1.3333333,0,0,-1.3333333,0,682.66667)"><g
       id="g656"><g
         id="g658"
         clip-path="url(#clipPath662)"><g
           id="g664"
           transform="translate(451,256)"><path
             d="m 0,0 c 0,7.139 -0.395,14.185 -1.143,21.125 l 45.426,38.893 c -2.906,11.51 -6.663,22.954 -11.334,34.248 -4.683,11.288 -10.118,22.036 -16.202,32.231 l -59.54,-4.614 c -8.898,11.098 -18.985,21.201 -30.068,30.118 l 4.621,59.637 c -10.195,6.084 -20.943,11.519 -32.231,16.202 -11.294,4.671 -22.737,8.428 -34.248,11.334 L -173.55,193.82 c -7.045,0.771 -14.199,1.18 -21.45,1.18 -7.139,0 -14.185,-0.395 -21.125,-1.143 l -38.893,45.427 c -11.51,-2.907 -22.954,-6.664 -34.248,-11.334 -11.288,-4.684 -22.036,-10.119 -32.23,-16.203 l 4.613,-59.539 c -11.098,-8.899 -21.201,-18.985 -30.118,-30.069 l -59.637,4.621 c -6.084,-10.195 -11.519,-20.943 -16.202,-32.231 -4.671,-11.294 -8.428,-22.737 -11.334,-34.248 L -388.82,21.45 C -389.591,14.405 -390,7.251 -390,0 c 0,-7.139 0.395,-14.185 1.143,-21.125 l -45.426,-38.893 c 2.906,-11.51 6.663,-22.954 11.334,-34.248 4.683,-11.288 10.118,-22.036 16.202,-32.23 l 59.54,4.613 c 8.898,-11.098 18.985,-21.201 30.068,-30.118 l -4.621,-59.637 c 10.195,-6.084 20.943,-11.519 32.231,-16.202 11.294,-4.671 22.737,-8.428 34.248,-11.334 l 38.831,45.354 c 7.045,-0.771 14.199,-1.18 21.45,-1.18 7.139,0 14.185,0.395 21.125,1.143 l 38.893,-45.426 c 11.51,2.906 22.954,6.663 34.248,11.334 11.288,4.683 22.036,10.118 32.23,16.202 l -4.613,59.54 c 11.098,8.898 21.201,18.985 30.118,30.068 l 59.637,-4.621 c 6.084,10.195 11.519,20.943 16.202,32.231 4.671,11.294 8.428,22.737 11.334,34.248 L -1.18,-21.45 C -0.409,-14.405 0,-7.251 0,0 Z"
             style="fill:none;stroke:#000000;stroke-width:30;stroke-linecap:butt;stroke-linejoin:miter;stroke-miterlimit:10;stroke-dasharray:none;stroke-opacity:1"
             id="path666" /></g><g
           id="g668"
           transform="translate(256,391)"><path
             d="m 0,0 c -74.559,0 -135,-60.441 -135,-135 0,-74.559 60.441,-135 135,-135 74.559,0 135,60.441 135,135 C 135,-60.441 74.559,0 0,0 Z"
             style="fill:none;stroke:#000000;stroke-width:30;stroke-linecap:butt;stroke-linejoin:miter;stroke-miterlimit:10;stroke-dasharray:none;stroke-opacity:1"
             id="path670" /></g><g
           id="g672"
           transform="translate(256,331)"><path
             d="m 0,0 c -41.421,0 -75,-33.579 -75,-75 0,-41.421 33.579,-75 75,-75 41.421,0 75,33.579 75,75 C 75,-33.579 41.421,0 0,0 Z"
             style="fill:none;stroke:#000000;stroke-width:30;stroke-linecap:butt;stroke-linejoin:miter;stroke-miterlimit:10;stroke-dasharray:none;stroke-opacity:1"
             id="path674" /></g></g></g></g></svg>
